<?xml version="1.0" standalone="no"?><!DOCTYPE svg PUBLIC "-//W3C//DTD SVG 20010904//EN" "http://www.w3.org/TR/2001/REC-SVG-20010904/DTD/svg10.dtd"><svg version="1.0" xmlns="http://www.w3.org/2000/svg" width="1024.000000pt" height="1024.000000pt" viewBox="0 0 1024.000000 1024.000000" preserveAspectRatio="xMidYMid meet"><metadata>Created by potrace 1.14, written by Peter Selinger 2001-2017</metadata><g transform="translate(0.000000,1024.000000) scale(0.100000,-0.100000)" fill="#000000" stroke="none"><path d="M3998 10153 c107 -118 248 -296 318 -401 89 -134 157 -280 234 -507 104 -304 181 -495 276 -685 124 -247 322 -538 490 -719 l68 -73 -67 41 c-97 59 -255 137 -382 188 -300 121 -742 208 -1185 233 -205 12 -617 -1 -835 -25 -71 -8 -449 -51 -840 -96 -390 -44 -915 -104 -1165 -133 l-455 -52 160 -38 c196 -47 507 -148 635 -206 142 -65 481 -239 595 -305 214 -123 512 -331 668 -466 191 -166 502 -382 722 -503 185 -101 350 -172 590 -252 423 -141 780 -214 1058 -214 90 0 67 -15 -45 -28 -305 -36 -600 -124 -893 -267 -364 -178 -624 -365 -925 -665 -136 -135 -253 -280 -390 -480 -323 -474 -592 -804 -896 -1100 -323 -314 -571 -506 -852 -661 -24 -13 -39 -25 -33 -27 5 -2 202 13 438 32 379 32 607 47 1323 86 659 36 1224 128 1655 268 305 100 721 287 942 425 333 208 701 567 839 818 20 38 39 67 41 66 2 -2 -6 -30 -17 -63 -104 -299 -158 -701 -139 -1034 19 -343 91 -818 189 -1245 50 -215 94 -475 116 -674 13 -120 15 -215 11 -435 -4 -277 -5 -286 -56 -614 -28 -183 -51 -335 -51 -338 0 -26 145 135 299 333 121 155 624 843 717 978 189 277 446 749 563 1032 124 304 206 616 253 963 19 147 16 643 -5 805 -19 139 -48 277 -78 364 -11 30 -19 57 -19 60 0 3 24 -35 53 -85 131 -220 251 -379 402 -529 137 -138 245 -221 560 -435 444 -301 485 -330 605 -418 155 -115 236 -187 276 -247 19 -27 34 -45 34 -39 0 6 -23 96 -50 200 -113 426 -177 731 -304 1449 -47 264 -100 534 -116 600 -90 351 -220 641 -390 870 -229 310 -436 498 -733 670 l-49 28 29 24 c50 43 130 92 183 113 115 45 358 64 524 40 38 -6 72 -8 75 -4 14 15 -215 208 -342 287 -232 146 -548 216 -785 174 l-84 -14 54 45 c105 89 455 449 541 557 160 200 364 508 494 745 75 138 233 482 233 509 0 25 -109 135 -159 161 -58 29 -115 26 -178 -10 -65 -37 -85 -67 -168 -250 -112 -246 -299 -617 -395 -784 -159 -277 -274 -430 -503 -671 l-85 -90 19 85 c48 217 61 447 34 602 -26 153 -105 344 -201 489 -57 87 -285 302 -302 285 -2 -3 2 -43 9 -88 9 -50 14 -154 13 -263 0 -166 -2 -187 -27 -270 -34 -113 -86 -217 -135 -274 l-38 -44 -23 79 c-80 271 -217 558 -361 759 -151 209 -399 439 -661 611 -232 153 -619 324 -1116 495 -237 81 -453 164 -695 268 -92 39 -172 71 -178 71 -7 0 24 -39 68 -87z"/></g></svg>