<?xml version="1.0" standalone="no"?>
<!DOCTYPE svg PUBLIC "-//W3C//DTD SVG 20010904//EN"
 "http://www.w3.org/TR/2001/REC-SVG-20010904/DTD/svg10.dtd">
<svg version="1.0" xmlns="http://www.w3.org/2000/svg"
 width="2000.000000pt" height="2000.000000pt" viewBox="0 0 2000.000000 2000.000000"
 preserveAspectRatio="xMidYMid meet">
<metadata>
Created by potrace 1.14, written by Peter Selinger 2001-2017
</metadata>
<g transform="translate(0.000000,2000.000000) scale(0.100000,-0.100000)"
fill="#000000" stroke="none">
<path d="M9329 19996 c-2 -2 -40 -7 -84 -10 -44 -4 -98 -9 -120 -11 -22 -2
-69 -7 -105 -10 -36 -3 -78 -7 -95 -9 -16 -2 -61 -7 -100 -11 -38 -4 -78 -9
-87 -10 -9 -2 -43 -6 -75 -10 -52 -5 -278 -39 -328 -49 -11 -2 -54 -9 -95 -16
-41 -6 -91 -15 -110 -20 -19 -5 -53 -11 -75 -15 -53 -7 -333 -70 -460 -102
-55 -14 -109 -27 -119 -29 -10 -2 -33 -8 -51 -14 -18 -6 -41 -12 -51 -14 -25
-6 -232 -65 -264 -76 -14 -5 -86 -27 -160 -50 -74 -22 -143 -45 -152 -51 -10
-5 -22 -9 -27 -9 -5 0 -22 -5 -38 -12 -15 -6 -32 -12 -38 -13 -17 -4 -318
-116 -350 -131 -16 -7 -66 -27 -110 -44 -44 -18 -104 -43 -133 -56 -29 -13
-54 -24 -57 -24 -2 0 -39 -16 -82 -35 -43 -20 -87 -40 -98 -45 -11 -5 -135
-65 -275 -134 -230 -113 -335 -168 -455 -236 -22 -12 -83 -47 -135 -77 -52
-29 -133 -77 -180 -106 -47 -29 -96 -59 -110 -67 -13 -8 -46 -30 -72 -47 -26
-18 -51 -33 -54 -33 -4 0 -31 -18 -60 -40 -29 -22 -56 -40 -59 -40 -4 0 -43
-26 -88 -58 -45 -31 -95 -66 -112 -76 -16 -11 -34 -23 -40 -28 -5 -4 -100 -75
-210 -157 -110 -81 -220 -165 -245 -185 -25 -21 -52 -43 -60 -49 -25 -20 -254
-210 -266 -222 -6 -5 -42 -37 -79 -70 -141 -123 -196 -176 -450 -430 -232
-231 -307 -310 -451 -475 -21 -25 -43 -50 -49 -56 -5 -6 -30 -35 -55 -64 -25
-30 -59 -70 -76 -89 -53 -62 -218 -272 -295 -376 -41 -55 -80 -106 -86 -113
-7 -7 -13 -16 -13 -20 0 -4 -10 -19 -23 -34 -58 -70 -385 -564 -462 -700 -5
-10 -49 -84 -96 -165 -47 -82 -89 -155 -93 -163 -3 -8 -31 -60 -61 -115 -174
-315 -399 -812 -538 -1185 -80 -217 -196 -560 -223 -665 -2 -5 -15 -50 -29
-100 -74 -259 -146 -559 -196 -825 -16 -85 -33 -177 -39 -205 -5 -27 -12 -72
-15 -100 -4 -27 -8 -57 -10 -65 -2 -8 -7 -37 -10 -65 -7 -57 -13 -98 -20 -135
-6 -34 -13 -84 -21 -155 -3 -33 -8 -69 -10 -80 -4 -18 -8 -58 -19 -185 -28
-304 -28 -1666 0 -1874 2 -17 6 -58 10 -91 3 -33 7 -71 9 -85 2 -14 7 -51 11
-84 4 -32 8 -68 10 -80 2 -11 6 -39 9 -61 11 -88 17 -132 26 -180 5 -27 11
-68 14 -90 3 -22 8 -51 10 -65 3 -14 12 -63 20 -110 8 -47 20 -110 26 -140 6
-30 13 -66 16 -80 2 -14 21 -97 40 -185 20 -88 40 -176 44 -195 101 -448 340
-1146 572 -1670 101 -228 289 -603 396 -792 17 -29 40 -70 51 -90 151 -270
376 -620 600 -933 19 -27 38 -52 41 -55 4 -3 20 -25 37 -50 17 -25 39 -55 49
-67 11 -12 44 -54 74 -93 59 -77 148 -189 183 -230 12 -14 44 -52 71 -85 28
-33 55 -65 61 -71 9 -10 79 -91 138 -158 124 -142 471 -495 657 -666 62 -58
121 -112 130 -120 8 -8 45 -40 80 -70 36 -30 67 -57 70 -61 6 -6 117 -99 179
-149 23 -19 53 -43 64 -54 12 -10 38 -30 57 -45 19 -14 37 -28 40 -31 3 -3 32
-25 65 -50 58 -44 67 -51 99 -78 44 -36 353 -253 496 -348 196 -130 242 -159
391 -247 35 -21 71 -42 79 -47 20 -13 108 -63 205 -118 134 -75 493 -257 620
-315 66 -30 147 -67 180 -82 169 -77 399 -168 745 -295 137 -50 638 -203 736
-225 10 -2 46 -11 78 -20 33 -8 69 -17 80 -20 12 -2 21 -4 21 -5 0 -1 10 -3
22 -6 12 -2 68 -15 125 -28 101 -24 439 -92 508 -102 19 -3 46 -7 60 -10 14
-2 68 -11 120 -19 52 -9 111 -18 130 -21 19 -4 49 -8 65 -9 17 -2 48 -6 70 -9
89 -13 183 -25 240 -31 33 -4 71 -8 85 -11 159 -26 1730 -26 1920 1 19 3 58 7
85 10 28 3 86 10 130 16 105 14 111 15 175 23 169 22 684 114 840 151 8 2 47
11 85 20 39 9 77 17 85 19 163 40 249 63 365 96 77 22 148 42 158 45 44 10
317 98 361 116 27 10 52 19 57 19 4 0 20 5 36 12 15 6 33 12 38 14 78 20 491
186 735 296 25 11 70 31 100 45 138 62 483 239 511 263 l32 26 -80 105 c-44
57 -151 199 -237 314 -86 116 -165 221 -176 235 -65 86 -470 631 -490 660 -13
19 -31 41 -38 49 -8 8 -24 30 -37 50 -19 28 -299 407 -445 601 -22 29 -257
346 -282 381 -61 82 -101 137 -118 159 -10 14 -51 68 -89 120 -39 52 -105 142
-148 200 -43 58 -131 177 -196 265 -65 88 -123 167 -130 175 -7 8 -55 74 -107
145 -52 72 -97 132 -100 135 -3 3 -30 39 -60 80 -46 63 -243 331 -310 420
-134 180 -222 303 -345 486 -82 121 -159 233 -172 250 -12 17 -23 36 -23 42 0
6 -3 12 -7 14 -8 3 -21 21 -213 308 -68 102 -126 187 -129 190 -3 3 -10 13
-16 22 -11 19 -270 403 -668 990 -112 166 -269 398 -502 743 -82 121 -199 294
-260 385 -61 91 -169 251 -240 355 -70 105 -156 231 -190 280 -34 50 -133 196
-220 325 -87 129 -162 237 -165 240 -4 3 -9 10 -11 15 -2 6 -31 50 -64 98 -33
49 -64 96 -70 105 -5 9 -14 21 -18 26 -10 12 -146 212 -365 536 -80 118 -152
223 -160 233 -8 9 -20 26 -26 37 -10 18 -90 135 -267 392 -41 59 -77 108 -81
108 -5 0 -8 -48 -9 -107 0 -60 -2 -310 -5 -558 -2 -247 -6 -1262 -9 -2255 -6
-2376 -11 -2827 -31 -2940 -8 -49 -58 -132 -101 -171 -96 -83 -164 -94 -588
-93 l-250 0 -65 43 c-81 54 -123 99 -162 176 l-31 60 2 2520 c5 5441 5 5319
26 5351 32 49 127 139 177 166 48 26 73 34 138 43 39 5 534 6 590 1 87 -8 148
-19 180 -34 84 -38 113 -75 447 -572 180 -270 333 -498 338 -508 6 -9 156
-237 335 -507 179 -269 393 -593 477 -720 84 -126 157 -235 162 -242 6 -7 11
-14 11 -17 0 -3 14 -25 30 -48 17 -24 38 -54 47 -68 9 -14 35 -54 58 -90 24
-36 157 -238 297 -450 140 -212 294 -446 343 -520 49 -74 151 -229 227 -343
76 -114 138 -212 138 -217 0 -4 3 -10 8 -12 6 -3 80 -109 92 -133 13 -26 105
-160 112 -163 5 -2 8 -9 8 -16 0 -7 9 -21 20 -31 11 -10 20 -22 20 -27 0 -5
35 -62 79 -126 43 -64 149 -225 236 -357 628 -954 923 -1399 934 -1412 6 -7
11 -15 11 -18 0 -9 84 -129 93 -133 4 -2 7 -8 7 -12 0 -7 473 -728 550 -840 6
-8 68 -103 139 -210 70 -107 215 -328 323 -490 107 -162 264 -401 350 -530 85
-129 280 -424 434 -655 153 -231 281 -424 283 -430 2 -5 66 -102 141 -215 252
-378 455 -685 460 -695 3 -5 57 -89 121 -185 292 -441 553 -837 635 -962 49
-75 92 -137 96 -138 4 0 82 51 174 112 92 62 174 118 183 123 9 6 18 12 21 15
3 3 39 30 80 60 41 30 80 58 85 63 6 4 75 58 155 119 80 61 147 114 150 118 3
3 43 37 90 75 398 328 859 775 1170 1135 30 35 60 68 65 74 11 13 103 122 125
150 8 10 20 23 25 30 16 17 97 118 125 156 14 18 30 38 35 44 6 6 23 29 39 51
17 22 33 42 36 45 3 3 23 30 45 60 22 30 43 60 48 65 4 6 25 35 47 65 22 30
44 60 50 67 15 18 246 363 310 463 57 90 182 298 233 390 160 285 269 498 373
722 31 68 67 146 79 173 13 28 35 79 50 115 14 36 35 84 46 107 10 24 19 46
19 51 0 5 8 26 19 48 29 60 143 370 206 559 97 293 241 813 270 974 3 19 8 37
10 41 3 4 7 22 9 41 3 19 14 78 25 131 25 120 28 137 41 217 6 36 12 67 14 70
2 3 6 29 10 56 3 28 8 61 10 75 8 42 19 121 40 270 18 132 24 176 32 270 3 41
8 78 10 81 26 46 26 1666 0 1861 -3 18 -7 62 -11 98 -3 36 -7 79 -9 95 -2 17
-7 57 -11 90 -4 32 -8 66 -10 75 -3 15 -13 88 -21 150 -3 19 -7 46 -9 60 -8
46 -15 86 -20 124 -2 21 -7 46 -9 55 -3 9 -7 34 -11 56 -5 39 -20 125 -30 175
-3 14 -8 41 -11 60 -4 19 -8 43 -10 53 -11 50 -14 66 -25 112 -54 242 -75 327
-131 530 -49 179 -65 230 -138 460 -66 204 -194 552 -255 690 -7 17 -30 71
-50 120 -21 50 -43 101 -50 115 -7 14 -17 36 -23 50 -59 143 -263 551 -384
765 -25 44 -57 103 -73 130 -68 121 -328 539 -345 555 -3 3 -9 13 -15 22 -11
19 -153 225 -166 242 -5 6 -66 88 -135 181 -70 94 -143 190 -163 215 -20 24
-41 51 -48 60 -46 59 -204 248 -268 320 -22 24 -44 50 -50 56 -228 258 -501
535 -766 776 -89 81 -103 93 -188 166 -30 26 -59 52 -65 57 -6 6 -47 40 -91
75 -44 36 -82 67 -85 70 -26 26 -367 288 -430 330 -12 8 -28 20 -34 25 -6 6
-31 23 -56 40 -25 16 -47 32 -50 35 -3 3 -45 32 -95 65 -49 33 -92 62 -95 65
-3 3 -14 11 -25 17 -11 7 -71 45 -132 85 -62 40 -121 78 -130 83 -10 6 -83 49
-163 97 -161 96 -166 98 -335 190 -202 110 -511 262 -685 338 -41 17 -97 42
-125 55 -157 72 -577 230 -840 316 -333 109 -864 249 -1075 284 -19 3 -51 10
-70 15 -19 5 -55 12 -80 15 -24 4 -47 8 -50 10 -3 1 -27 6 -55 9 -27 4 -57 9
-65 11 -19 5 -78 16 -110 20 -14 2 -72 11 -130 20 -58 9 -121 18 -140 21 -19
2 -48 6 -65 9 -16 2 -70 9 -120 15 -49 6 -105 13 -122 15 -36 5 -197 14 -373
20 -179 7 -1315 16 -1321 11z m4021 -6021 c104 -18 213 -103 263 -206 26 -52
27 -64 33 -254 10 -389 6 -6885 -5 -6885 -5 0 -79 109 -136 201 -5 9 -23 36
-39 60 -16 24 -63 96 -104 159 -42 63 -97 148 -124 188 -26 41 -48 76 -48 79
0 3 -13 22 -29 42 -15 20 -30 41 -32 46 -2 6 -53 85 -114 178 -60 92 -179 272
-262 400 -84 127 -157 239 -163 247 -72 110 -100 152 -100 154 0 2 -19 32 -43
68 l-43 66 2 2258 c1 1243 5 2407 8 2587 6 309 7 331 28 380 27 63 30 67 93
131 63 65 130 97 220 105 96 9 539 6 595 -4z"/>
</g>
</svg>
